<?xml version="1.0" encoding="UTF-8" standalone="no"?>
<svg
   xmlns:osb="http://www.openswatchbook.org/uri/2009/osb"
   xmlns:dc="http://purl.org/dc/elements/1.1/"
   xmlns:cc="http://creativecommons.org/ns#"
   xmlns:rdf="http://www.w3.org/1999/02/22-rdf-syntax-ns#"
   xmlns:svg="http://www.w3.org/2000/svg"
   xmlns="http://www.w3.org/2000/svg"
   xmlns:xlink="http://www.w3.org/1999/xlink"
   id="svg8"
   version="1.1"
   viewBox="0 0 4.2333331 4.2333331"
   height="4.2333331mm"
   width="4.2333331mm">
  <defs
     id="defs2">
    <linearGradient
       id="linearGradient3166">
      <stop
         id="stop3162"
         offset="0"
         style="stop-color:#ffc04c;stop-opacity:1" />
      <stop
         id="stop3164"
         offset="1"
         style="stop-color:#ff8261;stop-opacity:1" />
    </linearGradient>
    <linearGradient
       id="linearGradient3158">
      <stop
         id="stop3154"
         offset="0"
         style="stop-color:#e9387c;stop-opacity:1" />
      <stop
         id="stop3156"
         offset="1"
         style="stop-color:#b4318b;stop-opacity:1" />
    </linearGradient>
    <linearGradient
       id="linearGradient3148">
      <stop
         id="stop3144"
         offset="0"
         style="stop-color:#3b40b5;stop-opacity:1" />
      <stop
         id="stop3146"
         offset="1"
         style="stop-color:#3b94e3;stop-opacity:1" />
    </linearGradient>
    <linearGradient
       osb:paint="solid"
       id="linearGradient2325">
      <stop
         id="stop2323"
         offset="0"
         style="stop-color:#01c32e;stop-opacity:1;" />
    </linearGradient>
    <style
       id="style2922">
      .cls-1 {
        fill: #d9d9d9;
        fill-rule: evenodd;
      }
    </style>
    <linearGradient
       gradientTransform="matrix(0.26458333,0,0,0.26458333,36.348656,56.39387)"
       y2="311.28787"
       x2="523.69379"
       y1="674.91602"
       x1="133.69922"
       gradientUnits="userSpaceOnUse"
       id="linearGradient3152"
       xlink:href="#linearGradient3148" />
    <linearGradient
       gradientTransform="matrix(0.26458333,0,0,0.26458333,36.348656,56.39387)"
       gradientUnits="userSpaceOnUse"
       y2="841.69727"
       x2="208.5965"
       y1="643.20227"
       x1="303.55087"
       id="linearGradient3160"
       xlink:href="#linearGradient3158" />
    <linearGradient
       gradientTransform="matrix(0.26458333,0,0,0.26458333,36.348656,56.39387)"
       gradientUnits="userSpaceOnUse"
       y2="841.69727"
       x2="512.14734"
       y1="688.37103"
       x1="531.51099"
       id="linearGradient3168"
       xlink:href="#linearGradient3166" />
  </defs>
  <metadata
     id="metadata5">
    <rdf:RDF>
      <cc:Work
         rdf:about="">
        <dc:format>image/svg+xml</dc:format>
        <dc:type
           rdf:resource="http://purl.org/dc/dcmitype/StillImage" />
        <dc:title></dc:title>
      </cc:Work>
    </rdf:RDF>
  </metadata>
  <g
     transform="translate(20.566326,-26.472786)"
     id="layer1">
    <g
       transform="matrix(0.01592436,0,0,0.01592436,-19.999061,26.203645)"
       id="g3190">
      <path
         style="fill:url(#linearGradient3168);fill-opacity:1;fill-rule:evenodd;stroke:none;stroke-width:1.6789999;stroke-miterlimit:4;stroke-dasharray:none;stroke-opacity:0.99494952"
         d="m 144.55966,229.93931 -0.29873,52.79992 c 27.52599,-0.0203 49.17641,-13.8008 62.72072,-30.65291 -14.08882,-9.40398 -35.39628,-24.19076 -43.39977,-30.59675 -1.73091,1.78045 -8.00081,8.42994 -19.02222,8.44974 z"
         id="path3142" />
      <path
         style="fill:url(#linearGradient3160);fill-opacity:1;fill-rule:evenodd;stroke:none;stroke-width:1.6789999;stroke-miterlimit:4;stroke-dasharray:none;stroke-opacity:0.99494952"
         d="M 119.86694,212.10308 71.723241,234.9654 c 12.051844,28.09333 39.962119,47.77589 72.477749,47.77589 0.0203,0 0.0397,-0.002 0.0599,-0.002 l 0.29873,-52.79992 c -0.0164,3e-5 -0.0316,0.002 -0.048,0.002 -11.73276,0 -21.2457,-7.7019 -24.64469,-17.83794 z"
         id="path3140" />
      <path
         style="fill:url(#linearGradient3152);fill-opacity:1;fill-rule:evenodd;stroke:none;stroke-width:1.6789999;stroke-miterlimit:4;stroke-dasharray:none;stroke-opacity:0.99494952"
         d="m 144.20099,125.13179 c -43.53837,0 -78.832917,35.28132 -78.832917,78.80449 0,11.01891 2.269609,21.50552 6.355168,31.02912 l 48.143699,-22.86232 c -0.87,-2.59441 -1.35965,-5.33996 -1.35965,-8.1664 0,-13.86902 11.22318,-26.00461 26.00434,-26.00461 11.05204,0 17.33676,6.63017 19.07025,8.45145 8.00349,-5.89987 31.18184,-22.82888 43.39977,-30.59727 -13.55428,-16.86451 -35.22577,-30.65446 -62.78066,-30.65446 z"
         id="path2926" />
    </g>
    <rect
       y="-241.2381"
       x="-203.35118"
       height="372.68451"
       width="458.10715"
       id="rect2969"
       style="opacity:1;fill:#f00000;fill-opacity:0;stroke:none;stroke-width:56.5;stroke-miterlimit:4;stroke-dasharray:none;stroke-opacity:1" />
    <g
       style="fill:none;fill-opacity:0.8;fill-rule:evenodd"
       transform="matrix(0.2813801,0,0,0.2813801,-20.704186,26.191406)"
       id="g3174">
      <polygon
         style="fill:#9aa7b0"
         points="3,5 7,5 7,1 "
         id="polygon3170" />
      <path
         transform="matrix(0.01618208,0,0,0.01618208,1.46262,0.5993808)"
         id="polygon3172"
         d="M 403.98828,24.757812 V 333.74023 H 95.005859 V 889.91211 H 335.13477 a 313.14726,313.14726 0 0 1 -17.77735,-20.23438 313.14726,313.14726 0 0 1 -18.20703,-25.46093 313.14726,313.14726 0 0 1 -15.57422,-27.15235 313.14726,313.14726 0 0 1 -12.78711,-28.57031 313.14726,313.14726 0 0 1 -9.86914,-29.70508 313.14726,313.14726 0 0 1 -6.85547,-30.54297 313.14726,313.14726 0 0 1 -3.77148,-31.07226 313.14726,313.14726 0 0 1 -0.78516,-22.15235 313.14726,313.14726 0 0 1 1.56446,-31.26171 313.14726,313.14726 0 0 1 4.67773,-30.95118 313.14726,313.14726 0 0 1 7.74414,-30.32812 313.14726,313.14726 0 0 1 10.73242,-29.4043 313.14726,313.14726 0 0 1 13.61524,-28.18555 313.14726,313.14726 0 0 1 16.36132,-26.68554 313.14726,313.14726 0 0 1 18.94336,-24.91797 313.14726,313.14726 0 0 1 21.33594,-22.90234 A 313.14726,313.14726 0 0 1 368,429.72461 a 313.14726,313.14726 0 0 1 25.46094,-18.20703 313.14726,313.14726 0 0 1 27.15234,-15.57422 313.14726,313.14726 0 0 1 28.57031,-12.78711 313.14726,313.14726 0 0 1 29.70508,-9.86914 313.14726,313.14726 0 0 1 30.54102,-6.85547 313.14726,313.14726 0 0 1 31.07422,-3.77148 313.14726,313.14726 0 0 1 22.15039,-0.78516 313.14726,313.14726 0 0 1 31.26367,1.56445 313.14726,313.14726 0 0 1 30.94922,4.67774 313.14726,313.14726 0 0 1 30.33008,7.74414 313.14726,313.14726 0 0 1 29.40234,10.73242 313.14726,313.14726 0 0 1 28.18555,13.61523 313.14726,313.14726 0 0 1 0.1875,0.11524 V 24.757812 Z"
         style="fill:#9aa7b0;stroke-width:61.79675293" />
    </g>
  </g>
</svg>
