<svg xmlns="http://www.w3.org/2000/svg"
     xmlns:xlink="http://www.w3.org/1999/xlink" id="svg8" version="1.1" viewBox="0 0 4.233 4.233" height="16"
     width="16">
    <defs id="defs2">
        <linearGradient id="linearGradient3166">
            <stop id="stop3162" offset="0" style="stop-color:#ffc04c;stop-opacity:1"/>
            <stop id="stop3164" offset="1" style="stop-color:#ff8261;stop-opacity:1"/>
        </linearGradient>
        <linearGradient id="linearGradient3158">
            <stop id="stop3154" offset="0" style="stop-color:#e9387c;stop-opacity:1"/>
            <stop id="stop3156" offset="1" style="stop-color:#b4318b;stop-opacity:1"/>
        </linearGradient>
        <linearGradient id="linearGradient3148">
            <stop id="stop3144" offset="0" style="stop-color:#3b40b5;stop-opacity:1"/>
            <stop id="stop3146" offset="1" style="stop-color:#3b94e3;stop-opacity:1"/>
        </linearGradient>
        <linearGradient id="linearGradient2325">
            <stop id="stop2323" offset="0" style="stop-color:#01c32e;stop-opacity:1"/>
        </linearGradient>
        <linearGradient gradientTransform="matrix(.26458 0 0 .26458 36.349 56.394)" y2="311.288" x2="523.694"
                        y1="674.916" x1="133.699" gradientUnits="userSpaceOnUse" id="linearGradient3152"
                        xlink:href="#linearGradient3148"/>
        <linearGradient gradientTransform="matrix(.26458 0 0 .26458 36.349 56.394)" gradientUnits="userSpaceOnUse"
                        y2="841.697" x2="208.596" y1="643.202" x1="303.551" id="linearGradient3160"
                        xlink:href="#linearGradient3158"/>
        <linearGradient gradientTransform="matrix(.26458 0 0 .26458 36.349 56.394)" gradientUnits="userSpaceOnUse"
                        y2="841.697" x2="512.147" y1="688.371" x1="531.511" id="linearGradient3168"
                        xlink:href="#linearGradient3166"/>
        <style id="style2922">.cls-1{fill:#d9d9d9;fill-rule:evenodd}</style>
    </defs>
    <g transform="translate(20.566 -26.473)" id="layer1">
        <g transform="matrix(.01592 0 0 .01592 -20 26.204)" id="g3190">
            <path style="fill:url(#linearGradient3168);fill-opacity:1;fill-rule:evenodd;stroke:none;stroke-width:1.6789999;stroke-miterlimit:4;stroke-dasharray:none;stroke-opacity:.99494952"
                  d="m144.56 229.94-.3 52.8c27.527-.021 49.177-13.802 62.722-30.654-14.09-9.404-35.397-24.19-43.4-30.596-1.731 1.78-8 8.43-19.022 8.45z"
                  id="path3142"/>
            <path style="fill:url(#linearGradient3160);fill-opacity:1;fill-rule:evenodd;stroke:none;stroke-width:1.6789999;stroke-miterlimit:4;stroke-dasharray:none;stroke-opacity:.99494952"
                  d="m119.867 212.103-48.144 22.862c12.052 28.094 39.962 47.776 72.478 47.776l.06-.002.299-52.8-.048.002c-11.733 0-21.246-7.702-24.645-17.838z"
                  id="path3140"/>
            <path style="fill:url(#linearGradient3152);fill-opacity:1;fill-rule:evenodd;stroke:none;stroke-width:1.6789999;stroke-miterlimit:4;stroke-dasharray:none;stroke-opacity:.99494952"
                  d="M144.201 125.132c-43.538 0-78.833 35.281-78.833 78.804a78.51 78.51 0 0 0 6.355 31.03l48.144-22.863c-.87-2.594-1.36-5.34-1.36-8.166 0-13.87 11.223-26.005 26.005-26.005 11.052 0 17.336 6.63 19.07 8.452 8.003-5.9 31.182-22.83 43.4-30.598-13.555-16.864-35.226-30.654-62.781-30.654z"
                  id="path2926"/>
        </g>
        <path id="rect2969"
              style="opacity:1;fill:#f00000;fill-opacity:0;stroke:none;stroke-width:56.5;stroke-miterlimit:4;stroke-dasharray:none;stroke-opacity:1"
              d="M-203.351-241.238h458.107v372.685h-458.107z"/>
        <g style="fill:none;fill-opacity:.8;fill-rule:evenodd" transform="translate(-20.704 26.191) scale(.28138)"
           id="g3174">
            <path style="fill:#9aa7b0" id="polygon3170" d="M3 5h4V1z"/>
            <path transform="translate(1.463 .6) scale(.01618)" id="polygon3172"
                  d="M403.988 24.758V333.74H95.006v556.172h240.129a313.147 313.147 0 0 1-17.778-20.234 313.147 313.147 0 0 1-18.207-25.461 313.147 313.147 0 0 1-15.574-27.153 313.147 313.147 0 0 1-12.787-28.57 313.147 313.147 0 0 1-9.87-29.705 313.147 313.147 0 0 1-6.855-30.543 313.147 313.147 0 0 1-3.771-31.072 313.147 313.147 0 0 1-.785-22.153 313.147 313.147 0 0 1 1.564-31.261 313.147 313.147 0 0 1 4.678-30.951 313.147 313.147 0 0 1 7.744-30.329 313.147 313.147 0 0 1 10.733-29.404 313.147 313.147 0 0 1 13.615-28.185 313.147 313.147 0 0 1 16.361-26.686 313.147 313.147 0 0 1 18.943-24.918 313.147 313.147 0 0 1 21.336-22.902A313.147 313.147 0 0 1 368 429.725a313.147 313.147 0 0 1 25.46-18.207 313.147 313.147 0 0 1 27.153-15.575 313.147 313.147 0 0 1 28.57-12.787 313.147 313.147 0 0 1 29.706-9.869 313.147 313.147 0 0 1 30.54-6.855 313.147 313.147 0 0 1 31.075-3.772 313.147 313.147 0 0 1 22.15-.785 313.147 313.147 0 0 1 31.264 1.564 313.147 313.147 0 0 1 30.95 4.678 313.147 313.147 0 0 1 30.33 7.744 313.147 313.147 0 0 1 29.402 10.733 313.147 313.147 0 0 1 28.185 13.615 313.147 313.147 0 0 1 .188.115V24.758Z"
                  style="fill:#9aa7b0;stroke-width:61.79675293"/>
        </g>
    </g>
</svg>