<svg xmlns="http://www.w3.org/2000/svg" width="16px" height="16px" viewBox="0 0 2048 2048">
    <circle fill-opacity="0.6" r="896" cx="1024" cy="1024" fill="#9fd18c"/>
    <g transform="scale(0.7)">
        <path fill-opacity="0.7" transform="translate(860.16, 2211.36) rotate(180) scale(-1, 1)" fill="#231f20"
              d="M656 -23q-14 -3 -23.5 -4.5t-18.5 -1.5q-257 0 -389.5 196t-132.5 578q0 383 132.5 579t391.5 196q260 0 392.5 -196t132.5 -579q0 -263 -63 -440.5t-183 -253.5l186 -182l-202 -150zM616 1255q-113 0 -165 -120.5t-52 -389.5q0 -268 52 -388.5t165 -120.5 q114 0 166 120.5t52 388.5q0 269 -52 389.5t-166 120.5z"/>
    </g>
</svg>