<svg xmlns="http://www.w3.org/2000/svg" width="16px" height="16px" viewBox="0 0 2048 2048">
    <circle fill-opacity="0.6" r="896" cx="1024" cy="1024" fill="#f6cd89"/>
    <g transform="scale(0.7)">
        <path fill-opacity="0.7" transform="translate(860.16, 2211.36) rotate(180) scale(-1, 1)" fill="#231f20"
              d="M510 655q-223 85 -302 178.5t-79 251.5q0 203 130 319t357 116q103 0 206 -23.5t204 -69.5v-288q-95 67 -193 102t-194 35q-107 0 -164 -43t-57 -123q0 -62 41.5 -102.5t173.5 -89.5l127 -48q180 -66 265 -175t85 -275q0 -226 -133.5 -337.5t-403.5 -111.5 q-111 0 -222.5 26.5t-215.5 78.5v305q118 -84 228.5 -125t218.5 -41q109 0 169 49.5t60 138.5q0 67 -40 117.5t-116 79.5z"/>
    </g>
</svg>